<?xml version="1.0" encoding="utf-8"?> <!-- Generator: IcoMoon.io --> <!DOCTYPE svg PUBLIC "-//W3C//DTD SVG 1.1//EN" "http://www.w3.org/Graphics/SVG/1.1/DTD/svg11.dtd"> <svg width="512" height="512" viewBox="0 0 512 512" xmlns="http://www.w3.org/2000/svg" xmlns:xlink="http://www.w3.org/1999/xlink" fill="#000000"><path d="M 160.00,352.00c 8.80,8.80, 23.637,8.363, 32.971-0.971L 351.03,192.971C 360.364,183.637, 360.80,168.80, 352.00,160.00 s-23.637-8.363-32.971,0.971L 160.971,319.029C 151.637,328.363, 151.20,343.20, 160.00,352.00zM 238.444,337.556c 2.28,4.525, 3.495,9.58, 3.495,14.848c0.00,8.808-3.372,17.03-9.496,23.154l-81.691,81.691 c-6.124,6.124-14.347,9.496-23.154,9.496s-17.03-3.372-23.154-9.496l-49.691-49.691c-6.124-6.124-9.496-14.347-9.496-23.154 s 3.372-17.03, 9.496-23.154l 81.691-81.691c 6.124-6.124, 14.347-9.497, 23.154-9.497c 5.268,0.00, 10.322,1.215, 14.848,3.495l 32.669-32.669 c-13.935-10.705-30.72-16.08-47.517-16.08c-19.993,0.00-39.986,7.583-55.154,22.751l-81.691,81.691 c-30.335,30.335-30.335,79.974,0.00,110.309l 49.691,49.691C 87.611,504.416, 107.604,512.00, 127.597,512.00 c 19.994,0.00, 39.987-7.584, 55.154-22.751l 81.691-81.691c 27.91-27.91, 30.119-72.149, 6.672-102.672L 238.444,337.556zM 489.249,72.442l-49.691-49.691C 424.391,7.583, 404.398,0.00, 384.404,0.00c-19.993,0.00-39.986,7.583-55.154,22.751l-81.691,81.691 c-27.91,27.91-30.119,72.149-6.671,102.671l 32.669-32.67c-2.279-4.525-3.494-9.58-3.494-14.847c0.00-8.808, 3.372-17.03, 9.496-23.154 l 81.691-81.691c 6.124-6.124, 14.347-9.497, 23.154-9.497s 17.03,3.373, 23.154,9.497l 49.691,49.691 c 6.124,6.124, 9.496,14.347, 9.496,23.154s-3.372,17.03-9.496,23.154l-81.691,81.691c-6.124,6.124-14.347,9.496-23.154,9.496 c-5.268,0.00-10.322-1.215-14.848-3.495l-32.669,32.669c 13.936,10.705, 30.72,16.08, 47.517,16.08c 19.994,0.00, 39.987-7.584, 55.154-22.751 l 81.691-81.691C 519.584,152.416, 519.584,102.777, 489.249,72.442z" ></path></svg>